<svg width="730" height="722" viewBox="0 0 730 722" fill="none" xmlns="http://www.w3.org/2000/svg" xmlns:xlink="http://www.w3.org/1999/xlink">
<path d="M375.678,29.833C379.972,35.033 383.744,40.651 387.4,46.283C415.356,89.349 443.234,132.46 471.118,175.567C548.686,295.479 626.25,415.393 703.794,535.317C708.994,543.357 714.15,551.425 719.08,559.611C723.186,566.429 726.35,573.631 727.856,581.429C729.466,589.761 728.796,597.857 724.942,605.517C721.208,612.935 717.272,620.269 713.13,627.491C709.186,634.369 703.132,639.367 696.002,643.233C690.082,646.441 683.776,648.799 677.25,650.623C658.136,655.969 639.02,661.299 619.888,666.587C560.256,683.073 500.622,699.549 440.978,715.999C430.79,718.811 420.546,721.357 409.842,721.789C382.508,722.891 360.206,713.281 342.578,693.699C337.194,687.721 332.862,681.049 328.764,674.245C315.228,651.771 301.712,629.283 288.206,606.791C245.904,536.353 203.626,465.903 161.274,395.493C158.523,390.921 156.378,386.281 155.31,381.063C153.857,373.967 151.082,367.237 147.938,360.627C144.711,353.841 140.065,348.241 133.477,344.235C131.993,343.333 130.279,342.035 128.663,341.013C127.366,338.981 126.448,337.537 125.167,335.399C87.95,273.299 50.648,211.245 13.419,149.151C10.286,143.925 7.407,138.553 4.648,133.14C2.434,128.796 0.9,124.182 0.209,119.386C-0.66,113.357 -0.333,107.386 1.618,101.535C3.658,95.42 5.712,89.308 7.66,83.166C10.739,73.455 17.172,66.292 26.243,61.122C32.47,57.572 39.208,55.121 46.248,53.532C59.24,50.599 72.268,47.805 85.307,45.063C130.019,35.66 174.739,26.296 219.46,16.934C242.648,12.079 265.84,7.237 289.04,2.433C296.106,0.97 303.266,0.176 310.534,0.113C337.212,0.282 359.172,9.844 375.678,29.833Z" clip-rule="evenodd" fill-rule="evenodd" fill="#FFFFFF"/>
</svg>
