<svg width="1346" height="1112" viewBox="0 0 1346 1112" fill="none" xmlns="http://www.w3.org/2000/svg" xmlns:xlink="http://www.w3.org/1999/xlink">
<path d="M518.004,-0.204C510.726,0.613 502.942,5.391 496.508,12.997C488.962,21.915 484.622,35.392 484.626,49.904C484.63,59.919 485.976,67.923 489.284,77.584C492.924,88.209 496.376,94.845 503.31,104.529C509.858,113.676 515.2,119.527 535.908,140.247C555.256,159.607 557.526,161.476 564.866,164.082C566.4,164.627 566.98,165 567.148,165.548C569.25,172.435 570.85,175.956 573.816,180.221C577.006,184.806 581.57,189.124 586.394,192.124C587.692,192.932 588.764,193.696 588.776,193.822C588.786,193.948 588.122,194.984 587.294,196.122C586.112,197.757 585.84,198.362 586.008,198.996C586.254,199.913 587.524,201.921 596.346,215.315C599.83,220.607 604.926,228.357 607.668,232.539C610.412,236.719 613.766,241.817 615.116,243.865C616.468,245.913 619.934,251.189 622.816,255.587C631.636,269.061 633.468,271.697 635.896,274.409C638.55,277.377 641.418,279.727 644.888,281.777L647.27,283.185L647.276,285.249C647.296,291.689 649.512,300.017 652.778,305.899C654,308.097 658.158,313.617 659.2,314.423C660.418,315.363 659.582,315.299 656.056,314.173C646.888,311.239 633.164,306.183 620.73,301.155C615.622,299.087 611.38,297.397 611.312,297.397C611.242,297.397 606.774,295.639 601.388,293.491C591.476,289.539 575.808,283.589 568.614,281.043C564.296,279.515 562.066,279.269 560.306,280.131C558.876,280.827 555.546,283.797 554.096,285.661L552.888,287.213L551.554,285.709C544.842,278.165 537.412,273.099 529.174,270.457C524.896,269.085 521.556,268.521 516.49,268.315L512.016,268.133L511.192,266.551C509.834,263.953 507.46,261.177 505.318,259.687C503.678,258.549 491.56,251.883 484.17,248.057C483.266,247.589 478.978,245.321 474.642,243.017C423.604,215.903 420.108,214.081 417.592,213.279C415.962,212.761 415.102,212.661 413.61,212.819C407.344,213.485 397.058,218.441 386.688,225.787L381.106,229.741L378.498,227.423C370.128,219.981 361.758,216.181 351.456,215.141C349.468,214.939 346.588,214.863 345.05,214.971L342.258,215.167L341.298,213.535C340.772,212.637 339.344,210.971 338.126,209.831C336.066,207.909 335.32,207.487 327.586,203.875C323.008,201.739 317.046,199.022 314.336,197.839C311.626,196.656 306.23,194.257 302.344,192.509C282.474,183.565 275.162,180.288 270.974,178.449C268.444,177.338 263.566,175.145 260.132,173.576C248.758,168.377 246.682,167.601 243.708,167.437L241.08,167.292L238.944,165.572C232.308,160.228 225.076,157.437 215.396,156.487C213.262,156.277 211.476,156.078 211.43,156.046C211.384,156.013 211.042,154.882 210.67,153.532C209.866,150.619 208.95,149.053 207.024,147.302C206.242,146.59 201.388,143.321 196.24,140.037C191.091,136.752 183.137,131.678 178.565,128.762C157.797,115.512 150.151,111.279 138.514,106.587C123.533,100.545 109.43,97.721 94.233,97.721L87.327,97.72L85.87,95.539C81.406,88.855 76.571,83.207 70.713,77.837C56.447,64.757 39.679,57.053 22.391,55.635C15.18,55.043 9.494,55.97 4.994,58.47C2.278,59.979 1.622,60.753 0.694,63.538C0.012,65.587 -0.035,66.271 -0.005,73.497C0.074,85.624 2.23,108.42 8.824,166.749C10.532,181.854 12.091,195.819 12.287,197.782C12.944,204.335 14.504,211.399 16.398,216.401C17.265,218.691 19.899,223.925 20.586,224.723C20.779,224.947 20.906,225.785 20.869,226.585C20.702,230.189 22.356,234.211 24.993,236.613C25.86,237.403 31.522,241.649 37.575,246.051C43.627,250.451 51.093,255.889 54.164,258.135C71.427,270.757 75.29,273.575 82.883,279.087C87.47,282.415 92.699,286.255 94.505,287.621L97.789,290.103L102.357,300.965C104.87,306.939 108.345,315.177 110.08,319.275C111.815,323.371 114.44,329.663 115.913,333.257C117.386,336.853 119.198,340.857 119.939,342.155L121.287,344.515L120.458,345.549C119.101,347.241 117.729,350.219 117.729,351.477C117.729,352.367 117.981,352.897 118.796,353.713C119.384,354.303 124.077,357.623 129.226,361.097C142.728,370.201 143.023,370.407 143.023,370.723C143.023,370.881 142.001,373.197 140.752,375.865C139.504,378.533 136.195,385.605 133.4,391.579C130.604,397.553 127.797,403.627 127.162,405.079C126.527,406.531 125.128,409.533 124.053,411.751C121.749,416.509 120.399,420.247 119.068,425.561C117.627,431.311 117.288,434.367 117.5,439.681C117.751,445.979 119.285,451.755 122.158,457.213C122.803,458.439 123.305,459.959 123.437,461.093C123.933,465.329 126.096,469.323 129.256,471.843C130.233,472.621 133.25,474.585 135.96,476.209C138.67,477.835 142.81,480.321 145.158,481.735C147.507,483.151 152.977,486.431 157.313,489.021C161.649,491.617 168.449,495.687 172.424,498.071C176.399,500.455 182.205,503.933 185.328,505.797C195.199,511.701 211.154,521.423 221.698,527.961C237.668,537.867 239.07,538.689 243.826,540.961C251.444,544.601 256.85,546.237 263.578,546.935C266.628,547.251 267.204,547.409 268.51,548.293C270.732,549.803 272.09,550.125 274.522,549.721C275.642,549.539 281.806,548.127 288.22,546.587C294.634,545.045 308.086,541.827 318.112,539.431C328.14,537.035 339.154,534.389 342.586,533.551C346.018,532.713 352.746,531.173 357.532,530.131C375.762,526.165 383.284,524.393 385.938,523.427C386.306,523.295 386.204,523.719 385.544,525.067C384.306,527.589 384.266,530.513 385.456,531.893C387.882,534.717 411.134,549.039 433.088,561.231C443.498,567.013 469.774,580.915 481.376,586.777C483.996,588.099 489.612,590.961 493.86,593.133C515.288,604.099 536.154,614.585 549.87,621.279C565.088,628.705 594.322,642.087 606.368,647.139C608.72,648.123 613.45,650.149 616.882,651.635C620.316,653.125 626.228,655.635 630.022,657.211C633.818,658.791 640.246,661.479 644.312,663.185C673.214,675.323 706.07,688.315 721.182,693.581C728.7,696.201 747.8,702.417 753.21,704.005C762.358,706.689 777.49,711.043 788.524,714.163C794.032,715.721 802.36,718.175 807.024,719.615C834.556,728.121 851.552,730.283 867.528,727.317C879.252,725.139 890.014,721.107 895.842,716.707L897.22,715.667L897.944,717.011C900.358,721.483 907.26,729.887 913.088,735.451L916.698,738.899L915.138,741.191C911.35,746.777 910.072,751.475 911.084,756.119C912.224,761.351 918.836,770.275 940.11,795.291C957.598,815.857 954.764,812.527 978.232,839.999C984.356,847.167 991.448,855.479 993.99,858.463C1004.046,870.269 1019.42,888.285 1035.164,906.719C1037.934,909.963 1042.46,915.269 1045.22,918.511C1047.978,921.755 1055.242,930.273 1061.358,937.441C1077.176,955.971 1080.504,959.871 1097.806,980.145C1106.298,990.097 1115.396,1000.761 1118.024,1003.839C1120.652,1006.917 1130.55,1018.513 1140.018,1029.607C1160.246,1053.311 1163.798,1057.471 1169.29,1063.899C1171.55,1066.543 1180.18,1076.669 1188.468,1086.397C1196.752,1096.125 1205.076,1105.867 1206.962,1108.043L1210.396,1111.999L1277.698,1111.999L1345.002,1111.999L1345.002,970.541L1345.002,829.079L1341.962,826.451C1340.29,825.005 1336.63,821.873 1333.832,819.489C1300.648,791.241 1278.536,772.429 1275.684,770.021C1269.63,764.903 1263.202,759.429 1259.276,756.047C1255.586,752.869 1250.952,748.919 1242.704,741.937C1240.486,740.059 1226.87,728.469 1212.446,716.179C1198.02,703.891 1184.648,692.509 1182.726,690.889C1180.808,689.269 1175.558,684.799 1171.058,680.957C1166.56,677.115 1160.824,672.231 1158.308,670.097C1155.796,667.961 1151.772,664.541 1149.37,662.493C1146.966,660.445 1142.438,656.587 1139.304,653.925C1136.174,651.259 1129.546,645.617 1124.578,641.389C1106.284,625.813 1093.722,615.613 1088.174,611.827C1078.89,605.489 1072.98,605.083 1063.188,610.107L1060.436,611.519L1059.582,610.473C1059.108,609.899 1057.538,608.239 1056.09,606.787C1054.644,605.335 1053.234,603.901 1052.966,603.599C1051.914,602.437 1044.11,596.235 1041.202,594.257C1027.286,584.781 1010.014,578.525 993.494,576.981L989.378,576.595L989.778,573.927C990.882,566.581 989.772,552.757 987.138,541.001C985.784,534.969 983.668,528.889 980.384,521.605C976.866,513.805 956.492,474.623 948.516,460.317C929.032,425.381 902.72,388.519 872.728,354.145C859.548,339.041 847.646,326.167 835.344,313.691C811.24,289.247 795.74,274.645 787.21,268.335C777.756,261.339 767.516,257.567 759.94,258.285C756.032,258.657 754.6,259.449 752.412,262.453L751.304,263.973L749.08,259.757C746.058,254.035 741.86,247.435 731.368,231.917C724.46,221.703 715.676,208.527 705.916,193.748C703.716,190.419 698.988,183.297 695.408,177.921C691.824,172.545 687.092,165.423 684.892,162.094C682.694,158.766 678.106,151.854 674.698,146.733C671.296,141.613 666.296,134.072 663.588,129.976C657.702,121.056 654.91,117.097 654.512,117.097C654.352,117.097 653.628,117.749 652.91,118.544L651.598,119.992L648.858,117.241C647.352,115.728 643.264,111.691 639.772,108.269C636.284,104.846 625.492,94.23 615.792,84.676C606.094,75.122 591.31,60.56 582.936,52.315C555.026,24.831 539.156,9.786 532.83,4.819C527.006,0.243 523.774,-0.852 518.004,-0.204ZM176.448,230.051C179.323,231.915 179.487,232.081 179.491,233.133C179.493,233.745 179.591,234.581 179.707,234.993C180.097,236.367 173.044,230.683 171.028,227.997C170.079,226.733 169.303,225.619 169.303,225.523C169.303,225.425 170.227,225.961 171.356,226.715C172.485,227.467 174.777,228.969 176.448,230.051ZM188.393,240.573C196.185,244.097 212.736,251.533 219.398,254.503C228.5,258.559 247.468,267.075 269.33,276.917C274.932,279.439 282.102,282.653 285.262,284.059C288.424,285.465 293.23,287.663 295.94,288.945L300.866,291.275L300.046,291.837C299.594,292.147 296.59,294.153 293.372,296.291C278.314,306.295 262.968,319.655 254.712,329.943L253.888,330.967L245.514,325.297C240.906,322.181 235.568,318.575 233.65,317.287L230.164,314.945L230.79,312.921C231.134,311.807 232.09,308.451 232.916,305.465L234.416,300.033L234.234,294.759C233.91,285.401 232.254,279.733 227.616,272.105C222.974,264.469 216.166,258.461 207.944,254.745C202.346,252.215 198.004,251.215 189.059,250.395C186.104,250.125 183.41,249.763 183.074,249.593C182.633,249.369 182.506,249.047 182.618,248.437C183.01,246.319 183.428,242.155 183.428,240.381C183.428,239.311 183.482,238.435 183.548,238.435C183.614,238.435 185.794,239.397 188.393,240.573ZM435.552,331.861C439.346,333.865 443.632,336.159 445.078,336.957C447.526,338.309 447.614,338.397 446.396,338.201C444.704,337.931 433.926,337.931 432.41,338.197L431.252,338.405L430.654,336.597C429.82,334.065 427.72,329.987 426.428,328.383C424.648,326.175 424.668,326.085 426.704,327.175C427.776,327.745 431.758,329.857 435.552,331.861ZM481.808,356.945C486.652,359.617 492.158,362.021 496.652,363.421C497.194,363.591 497.612,363.853 497.582,364.007C497.484,364.479 488.896,376.219 488.646,376.219C488.518,376.219 488.148,375.279 487.826,374.133C486.278,368.657 482.746,361.921 478.868,357.065C477.718,355.625 476.778,354.377 476.778,354.291C476.778,354.205 477.258,354.405 477.846,354.741C478.434,355.073 480.218,356.067 481.808,356.945ZM281.95,361.041C283.23,361.735 284.278,362.365 284.278,362.437C284.278,362.505 283.094,362.565 281.65,362.565L279.022,362.565L279.022,361.167C279.022,360.401 279.156,359.771 279.322,359.771C279.486,359.771 280.668,360.343 281.95,361.041Z" clip-rule="evenodd" fill-rule="evenodd" fill="#FFFFFF"/>
</svg>
