<svg width="552" height="714" viewBox="0 0 552 714" fill="none" xmlns="http://www.w3.org/2000/svg" xmlns:xlink="http://www.w3.org/1999/xlink">
<path d="M407.43,0.289C400.386,0.855 392.908,3.394 386.142,7.517C374.158,14.822 362.692,27.919 354.586,43.573C349.994,52.432 347.16,59.393 340.87,77.268C337.138,87.86 328.972,111.998 322.314,132.094C320.152,138.628 320.06,138.825 318.478,140.461C317.136,141.848 315.156,144.471 313.504,147.052C313.216,147.501 312.9,147.513 310.226,147.175L307.266,146.801L305.832,144.902C303.97,142.436 302.518,141.497 300.564,141.497C298.784,141.497 300.582,140.999 237.726,158.894C210.408,166.671 183.759,174.209 178.505,175.644C153.265,182.541 146.058,185.116 138.229,190.033C132.352,193.723 126.553,198.783 123.517,202.87C121.078,206.152 118.885,210.552 118.15,213.64C117.91,214.646 117.167,215.652 114.816,218.154C106.905,226.57 100.956,237.996 94.185,257.772C92.385,263.032 88.745,275.792 86.637,284.234C81.844,303.422 79.406,316.31 74.707,347.274C71.661,367.348 70.657,373.512 66.459,397.966C64.146,411.44 62.245,423.07 58.935,443.994C56.176,461.434 53.109,478.548 46.211,514.992C41.432,540.24 40.051,548.004 36.2,571.25C34.364,582.336 32.065,595.998 31.092,601.612C28.355,617.402 28.117,618.838 26.796,627.508C23.556,648.796 22.278,666.672 22.957,681.22L23.259,687.698L18.101,692.656C15.263,695.382 11.565,699.232 9.882,701.218C7.17,704.416 0.684,713.29 0.684,713.804C0.684,713.912 58.269,714 128.651,714L256.618,714L257.27,712.12C260.436,702.96 264.626,688.164 270.494,665.414C275.534,645.874 277.344,639.076 277.638,638.576C277.8,638.302 278.362,638.81 279.444,640.216C283.73,645.766 291.138,651.732 297.266,654.568C301.042,656.32 303.268,656.924 306.022,656.958C310.412,657.008 318.148,652.018 371.292,614.842C378.382,609.882 386.836,604.006 390.076,601.79C404.044,592.226 407.64,589.59 411.816,585.854C417.972,580.348 423.488,572.478 425.578,566.232C426.008,564.944 426.804,563.318 427.348,562.61C432.422,556.024 434.922,547.936 434.028,540.988C433.64,537.954 432.234,533.57 430.968,531.418L430.188,530.098L441.934,510.812C448.394,500.206 454.512,490.108 455.528,488.368C459.544,481.504 462.272,475.242 463.118,470.962C463.584,468.598 463.33,468.654 468.56,469.74C471.63,470.378 472.83,470.466 478.272,470.448C484.034,470.43 484.664,470.372 487.058,469.65C490.72,468.546 492.224,467.754 493.972,466.018C497.818,462.192 499.712,455.33 501.502,438.73C502.976,425.048 506.942,376.254 508.034,358.404C508.14,356.668 508.308,354.722 508.406,354.084L508.586,352.926L512.932,353.13C519.904,353.464 527.734,352.584 533.034,350.866C534.174,350.498 536.32,349.614 537.81,348.904C546.866,344.572 550.228,339.644 550.228,330.7C550.228,323.368 547.47,315.52 538.664,297.784C534.206,288.806 504.796,232.946 499.224,222.874C495.996,217.034 492.94,212.188 490.828,209.56C490.078,208.626 489.698,207.726 489.434,206.25C488.674,202.004 486.912,198.333 484.308,195.573C482.4,193.549 480.58,192.377 477.418,191.133C476.1,190.615 462.988,187.03 448.282,183.166C433.576,179.302 421.47,176.075 421.384,175.994C421.034,175.661 423.168,165.028 423.932,163.308C424.966,160.982 437.542,120.587 442.62,103.29C446.878,88.781 449.324,77.268 450.276,67.225C450.838,61.282 450.504,48.977 449.632,43.453C446.718,25.02 438.52,11.305 426.272,4.379C423.792,2.977 419.564,1.456 416.512,0.868C414.25,0.431 409.454,0.126 407.43,0.289ZM391.808,368.332C407.866,375.09 407.894,375.104 407.898,376.004C407.9,376.5 407.48,379.684 406.962,383.074C406.446,386.468 405.926,390.356 405.806,391.722C405.684,393.088 405.532,394.204 405.462,394.204C405.306,394.204 374.094,374.68 373.736,374.362C373.594,374.232 373.762,372.246 374.11,369.95C374.46,367.656 374.844,364.788 374.962,363.578C375.084,362.372 375.304,361.424 375.45,361.474C375.6,361.524 382.96,364.61 391.808,368.332Z" clip-rule="evenodd" fill-rule="evenodd" fill="#FFFFFF"/>
</svg>
