<svg width="1310" height="1548" viewBox="0 0 1310 1548" fill="none" xmlns="http://www.w3.org/2000/svg" xmlns:xlink="http://www.w3.org/1999/xlink">
<path d="M106.461,432.542C106.461,460.455 82.512,483.084 52.971,483.084C23.429,483.084 -0.52,460.455 -0.52,432.542C-0.52,404.628 23.429,382 52.971,382C82.512,382 106.461,404.628 106.461,432.542Z" fill="#FFFFFF" fill-opacity="0.15"/>
<path d="M70.787,431.69C70.787,441.459 62.405,449.379 52.065,449.379C41.726,449.379 33.344,441.459 33.344,431.69C33.344,421.92 41.726,414 52.065,414C62.405,414 70.787,421.92 70.787,431.69Z" fill="#FFFFFF"/>
<path d="M751.243,1531.163C751.243,1539.537 744.058,1546.325 735.195,1546.325C726.333,1546.325 719.148,1539.537 719.148,1531.163C719.148,1522.789 726.333,1516 735.195,1516C744.058,1516 751.243,1522.789 751.243,1531.163Z" fill="#FFFFFF"/>
<path d="M103.543,1183.163C103.543,1191.537 96.359,1198.325 87.496,1198.325C78.634,1198.325 71.449,1191.537 71.449,1183.163C71.449,1174.789 78.634,1168 87.496,1168C96.359,1168 103.543,1174.789 103.543,1183.163Z" fill="#FFFFFF"/>
<path d="M1297.34,805.165C1297.34,813.539 1290.156,820.327 1281.293,820.327C1272.431,820.327 1265.246,813.539 1265.246,805.165C1265.246,796.79 1272.431,790.002 1281.293,790.002C1290.156,790.002 1297.34,796.79 1297.34,805.165Z" fill="#FFFFFF"/>
<path d="M156.457,15.163C156.457,23.537 149.273,30.325 140.41,30.325C131.548,30.325 124.363,23.537 124.363,15.163C124.363,6.789 131.548,0 140.41,0C149.273,0 156.457,6.789 156.457,15.163Z" fill="#FFFFFF"/>
<path d="M1308.158,25.271C1308.158,39.228 1296.184,50.542 1281.413,50.542C1266.642,50.542 1254.668,39.228 1254.668,25.271C1254.668,11.314 1266.642,0 1281.413,0C1296.184,0 1308.158,11.314 1308.158,25.271Z" fill="url(#pf_0_105_99)"/>
<path d="M937.396,442.108C937.396,447.691 932.606,452.217 926.698,452.217C920.79,452.217 916,447.691 916,442.108C916,436.526 920.79,432 926.698,432C932.606,432 937.396,436.526 937.396,442.108Z" fill="#FFFFFF"/>
<defs>
<linearGradient id="pf_0_105_99" x1="1270.715" y1="7.581" x2="1308.158" y2="63.177" gradientUnits="userSpaceOnUse">
<stop stop-color="#FFFFFF"/>
<stop offset="1" stop-color="#FFFFFF" stop-opacity="0"/>
</linearGradient>
</defs>
</svg>
