<svg width="42" height="26" viewBox="0 0 42 26" fill="none" xmlns="http://www.w3.org/2000/svg" xmlns:xlink="http://www.w3.org/1999/xlink">
<path d="M25.858,12.379C25.858,15.482 23.342,17.999 20.238,17.999L20.238,20.399C24.667,20.399 28.258,16.808 28.258,12.379L25.858,12.379ZM20.238,17.999C17.134,17.999 14.618,15.482 14.618,12.379L12.218,12.379C12.218,16.808 15.809,20.399 20.238,20.399L20.238,17.999ZM14.618,12.379C14.618,9.275 17.134,6.759 20.238,6.759L20.238,4.359C15.809,4.359 12.218,7.949 12.218,12.379L14.618,12.379ZM20.238,6.759C23.342,6.759 25.858,9.275 25.858,12.379L28.258,12.379C28.258,7.949 24.667,4.359 20.238,4.359L20.238,6.759Z" fill="#FFFFFF"/>
<path d="M38.079,12.379C38.079,14.866 36.354,17.336 33.095,19.25C29.864,21.147 25.321,22.359 20.239,22.359L20.239,24.759C25.673,24.759 30.65,23.469 34.31,21.319C37.942,19.187 40.479,16.067 40.479,12.379L38.079,12.379ZM20.239,22.359C15.157,22.359 10.615,21.147 7.384,19.25C4.124,17.336 2.399,14.866 2.399,12.379L-0.001,12.379C-0.001,16.067 2.536,19.187 6.168,21.319C9.828,23.469 14.806,24.759 20.239,24.759L20.239,22.359ZM2.399,12.379C2.399,9.892 4.124,7.422 7.384,5.509C10.615,3.611 15.157,2.399 20.239,2.399L20.239,-0.001C14.806,-0.001 9.828,1.29 6.168,3.439C2.536,5.572 -0.001,8.692 -0.001,12.379L2.399,12.379ZM20.239,2.399C25.321,2.399 29.864,3.611 33.095,5.509C36.354,7.422 38.079,9.892 38.079,12.379L40.479,12.379C40.479,8.692 37.942,5.572 34.31,3.439C30.65,1.29 25.673,-0.001 20.239,-0.001L20.239,2.399Z" fill="#FFFFFF"/>
</svg>
