<svg width="64" height="64" viewBox="0 0 64 64" fill="none" xmlns="http://www.w3.org/2000/svg" xmlns:xlink="http://www.w3.org/1999/xlink">
<path d="M58.147,26.778L55.999,26.778L55.999,26.667L31.999,26.667L31.999,37.334L47.069,37.334C44.871,43.543 38.963,48.001 31.999,48.001C23.163,48.001 15.999,40.837 15.999,32.001C15.999,23.165 23.163,16.001 31.999,16.001C36.077,16.001 39.788,17.539 42.613,20.053L50.156,12.51C45.393,8.071 39.023,5.334 31.999,5.334C17.272,5.334 5.332,17.274 5.332,32.001C5.332,46.727 17.272,58.667 31.999,58.667C46.725,58.667 58.665,46.727 58.665,32.001C58.665,30.213 58.481,28.467 58.147,26.778Z" fill="#FFC107"/>
<path d="M8.406,19.589L17.168,26.014C19.538,20.145 25.28,16.001 31.998,16.001C36.077,16.001 39.788,17.539 42.613,20.053L50.156,12.51C45.393,8.071 39.022,5.334 31.998,5.334C21.756,5.334 12.873,11.117 8.406,19.589Z" fill="#FF3D00"/>
<path d="M32.002,58.668C38.89,58.668 45.148,56.032 49.88,51.745L41.627,44.761C38.86,46.865 35.478,48.004 32.002,48.001C25.066,48.001 19.176,43.578 16.958,37.406L8.262,44.106C12.675,52.742 21.638,58.668 32.002,58.668Z" fill="#4CAF50"/>
<path d="M58.148,26.777L56,26.777L56,26.666L32,26.666L32,37.333L47.071,37.333C46.019,40.288 44.124,42.87 41.621,44.761L41.625,44.758L49.879,51.742C49.295,52.273 58.667,45.333 58.667,31.999C58.667,30.211 58.483,28.466 58.148,26.777Z" fill="#1976D2"/>
</svg>
