<svg width="42" height="38" viewBox="0 0 42 38" fill="none" xmlns="http://www.w3.org/2000/svg" xmlns:xlink="http://www.w3.org/1999/xlink">
<path d="M25.858,18.381C25.858,21.484 23.342,24.001 20.238,24.001L20.238,26.401C24.667,26.401 28.258,22.81 28.258,18.381L25.858,18.381ZM20.238,24.001C17.134,24.001 14.618,21.484 14.618,18.381L12.218,18.381C12.218,22.81 15.809,26.401 20.238,26.401L20.238,24.001ZM14.618,18.381C14.618,15.277 17.134,12.761 20.238,12.761L20.238,10.361C15.809,10.361 12.218,13.951 12.218,18.381L14.618,18.381ZM20.238,12.761C23.342,12.761 25.858,15.277 25.858,18.381L28.258,18.381C28.258,13.951 24.667,10.361 20.238,10.361L20.238,12.761Z" fill="#888888"/>
<path d="M38.079,18.379C38.079,20.866 36.354,23.336 33.095,25.25C29.864,27.147 25.321,28.359 20.239,28.359L20.239,30.759C25.673,30.759 30.65,29.469 34.31,27.319C37.942,25.187 40.479,22.067 40.479,18.379L38.079,18.379ZM20.239,28.359C15.157,28.359 10.615,27.147 7.384,25.25C4.124,23.336 2.399,20.866 2.399,18.379L-0.001,18.379C-0.001,22.067 2.536,25.187 6.168,27.319C9.828,29.469 14.806,30.759 20.239,30.759L20.239,28.359ZM2.399,18.379C2.399,15.892 4.124,13.422 7.384,11.509C10.615,9.611 15.157,8.399 20.239,8.399L20.239,5.999C14.806,5.999 9.828,7.29 6.168,9.439C2.536,11.572 -0.001,14.692 -0.001,18.379L2.399,18.379ZM20.239,8.399C25.321,8.399 29.864,9.611 33.095,11.509C36.354,13.422 38.079,15.892 38.079,18.379L40.479,18.379C40.479,14.692 37.942,11.572 34.31,9.439C30.65,7.29 25.673,5.999 20.239,5.999L20.239,8.399Z" fill="#888888"/>
<path d="M5.768,0.232C4.791,-0.744 3.209,-0.744 2.232,0.232C1.256,1.209 1.256,2.791 2.232,3.768L5.768,0.232ZM34.232,35.768C35.209,36.744 36.791,36.744 37.768,35.768C38.744,34.791 38.744,33.209 37.768,32.232L34.232,35.768ZM2.232,3.768L34.232,35.768L37.768,32.232L5.768,0.232L2.232,3.768Z" fill="#FFFFFF"/>
<path d="M4.849,1.151C4.38,0.683 3.62,0.683 3.151,1.151C2.683,1.62 2.683,2.38 3.151,2.849L4.849,1.151ZM35.151,34.849C35.62,35.317 36.38,35.317 36.849,34.849C37.317,34.38 37.317,33.62 36.849,33.151L35.151,34.849ZM3.151,2.849L35.151,34.849L36.849,33.151L4.849,1.151L3.151,2.849Z" fill="#888888"/>
</svg>
