<svg width="4354" height="3522" viewBox="0 0 4354 3522" fill="none" xmlns="http://www.w3.org/2000/svg" xmlns:xlink="http://www.w3.org/1999/xlink">
<path d="M4285.919,2049.52L4285.399,2048.662L4285.399,2048.662L4285.919,2049.52ZM308.936,1805.13L376.329,1895.858L377.934,1894.665L310.541,1803.938L308.936,1805.13ZM376.329,1895.858C410.023,1941.218 460.6,2009.308 519.615,2071.866C578.607,2134.4 646.137,2191.522 713.771,2214.82L714.421,2212.928C647.269,2189.796 580.013,2132.976 521.069,2070.494C462.146,2008.032 411.633,1940.032 377.934,1894.665L376.329,1895.858ZM713.771,2214.82C781.473,2238.142 849.127,2227.528 916.647,2200.398C984.145,2173.278 1051.623,2129.602 1118.989,2086.682L1117.915,2084.994C1050.497,2127.948 983.189,2171.506 915.901,2198.542C848.635,2225.57 781.505,2236.038 714.421,2212.928L713.771,2214.82ZM1118.989,2086.682C1253.795,2000.796 1388.463,1917.726 1523.089,1878.476L1522.529,1876.556C1387.585,1915.899 1252.681,1999.134 1117.915,2084.994L1118.989,2086.682ZM1523.089,1878.476C1657.649,1839.246 1792.099,1843.81 1926.581,1940.899L1927.751,1939.277C1792.663,1841.75 1657.541,1837.194 1522.529,1876.556L1523.089,1878.476ZM1926.581,1940.899C1960.223,1965.186 1993.881,1995.274 2027.571,2026.874C2061.243,2058.456 2094.971,2091.572 2128.677,2121.834C2162.389,2152.104 2196.141,2179.574 2229.919,2199.894C2263.695,2220.214 2297.553,2233.422 2331.479,2235.094L2331.579,2233.096C2298.099,2231.446 2264.567,2218.404 2230.949,2198.18C2197.333,2177.956 2163.693,2150.586 2130.013,2120.346C2096.325,2090.1 2062.661,2057.044 2028.939,2025.414C1995.237,1993.804 1961.503,1963.643 1927.751,1939.277L1926.581,1940.899ZM2331.479,2235.094C2365.399,2236.764 2399.259,2226.894 2433.059,2210.26C2466.839,2193.626 2500.599,2170.202 2534.299,2144.704C2568.079,2119.156 2601.659,2091.648 2635.379,2066.59C2669.059,2041.568 2702.699,2019.15 2736.299,2003.968L2735.459,2002.146C2701.679,2017.418 2667.899,2039.936 2634.199,2064.984C2600.539,2089.992 2566.719,2117.682 2533.099,2143.11C2499.419,2168.588 2465.779,2191.918 2432.179,2208.466C2398.559,2225.01 2365.039,2234.744 2331.579,2233.096L2331.479,2235.094ZM2736.299,2003.968C2803.459,1973.617 2870.639,1972.115 2937.979,1976.967C3005.259,1981.813 3072.819,1993.027 3140.319,1987.941L3140.159,1985.946C3072.859,1991.018 3005.639,1979.836 2938.139,1974.972C2870.679,1970.113 2803.079,1971.589 2735.459,2002.146L2736.299,2003.968ZM3140.319,1987.941C3207.799,1982.853 3275.359,1961.456 3342.639,1945.54C3409.999,1929.607 3477.199,1919.136 3544.359,1935.668L3544.839,1933.726C3477.199,1917.074 3409.599,1927.647 3342.179,1943.594C3274.699,1959.557 3207.459,1980.875 3140.159,1985.946L3140.319,1987.941ZM3544.359,1935.668C3611.559,1952.212 3678.799,1995.808 3746.239,2039.206C3813.579,2082.55 3881.139,2125.696 3948.739,2140.988L3949.179,2139.038C3881.979,2123.838 3814.739,2080.918 3747.319,2037.524C3679.959,1994.182 3612.419,1950.366 3544.839,1933.726L3544.359,1935.668ZM3948.739,2140.988C4016.379,2156.292 4083.979,2143.694 4143.039,2122.264C4202.119,2100.834 4252.739,2070.54 4286.419,2050.378L4285.399,2048.662C4251.699,2068.828 4201.239,2099.026 4142.359,2120.384C4083.499,2141.742 4016.299,2154.226 3949.179,2139.038L3948.739,2140.988ZM4286.419,2050.378L4353.819,2010.05L4352.799,2008.334L4285.399,2048.662L4286.419,2050.378Z" transform="rotate(302.129 2331.523 2019.405)" fill="#FFFFFF" fill-opacity="0.1"/>
<path d="M4242.087,1976.375L4241.567,1975.517L4241.567,1975.517L4242.087,1976.375ZM265.104,1731.986L332.497,1822.713L334.102,1821.521L266.709,1730.793L265.104,1731.986ZM332.497,1822.713C366.191,1868.074 416.767,1936.163 475.783,1998.721C534.775,2061.255 602.305,2118.377 669.939,2141.675L670.589,2139.783C603.437,2116.651 536.181,2059.831 477.237,1997.349C418.313,1934.887 367.801,1866.887 334.102,1821.521L332.497,1822.713ZM669.939,2141.675C737.641,2164.997 805.295,2154.383 872.815,2127.253C940.313,2100.133 1007.791,2056.457 1075.157,2013.537L1074.083,2011.849C1006.665,2054.803 939.357,2098.361 872.069,2125.397C804.803,2152.425 737.673,2162.893 670.589,2139.783L669.939,2141.675ZM1075.157,2013.537C1209.963,1927.651 1344.631,1844.582 1479.257,1805.332L1478.697,1803.412C1343.753,1842.754 1208.849,1925.989 1074.083,2011.849L1075.157,2013.537ZM1479.257,1805.332C1613.817,1766.101 1748.267,1770.665 1882.749,1867.754L1883.919,1866.132C1748.831,1768.605 1613.709,1764.05 1478.697,1803.412L1479.257,1805.332ZM1882.749,1867.754C1916.391,1892.042 1950.049,1922.129 1983.739,1953.729C2017.411,1985.311 2051.139,2018.427 2084.845,2048.689C2118.557,2078.959 2152.309,2106.429 2186.087,2126.749C2219.863,2147.069 2253.721,2160.277 2287.647,2161.949L2287.747,2159.951C2254.267,2158.301 2220.735,2145.259 2187.117,2125.035C2153.501,2104.811 2119.861,2077.441 2086.181,2047.201C2052.493,2016.955 2018.829,1983.899 1985.107,1952.269C1951.405,1920.659 1917.671,1890.499 1883.919,1866.132L1882.749,1867.754ZM2287.647,2161.949C2321.567,2163.619 2355.427,2153.749 2389.227,2137.115C2423.007,2120.481 2456.767,2097.057 2490.467,2071.559C2524.247,2046.011 2557.827,2018.503 2591.547,1993.445C2625.227,1968.423 2658.867,1946.005 2692.467,1930.824L2691.627,1929.001C2657.847,1944.273 2624.067,1966.791 2590.367,1991.839C2556.707,2016.847 2522.887,2044.537 2489.267,2069.965C2455.587,2095.443 2421.947,2118.773 2388.347,2135.321C2354.727,2151.865 2321.207,2161.599 2287.747,2159.951L2287.647,2161.949ZM2692.467,1930.824C2759.627,1900.472 2826.807,1898.971 2894.147,1903.822C2961.427,1908.668 3028.987,1919.883 3096.487,1914.796L3096.327,1912.802C3029.027,1917.874 2961.807,1906.691 2894.307,1901.827C2826.847,1896.968 2759.247,1898.444 2691.627,1929.001L2692.467,1930.824ZM3096.487,1914.796C3163.967,1909.709 3231.527,1888.311 3298.807,1872.395C3366.167,1856.463 3433.367,1845.991 3500.527,1862.524L3501.007,1860.582C3433.367,1843.93 3365.767,1854.502 3298.347,1870.449C3230.867,1886.413 3163.627,1907.73 3096.327,1912.802L3096.487,1914.796ZM3500.527,1862.524C3567.727,1879.068 3634.967,1922.664 3702.407,1966.061C3769.747,2009.405 3837.307,2052.551 3904.907,2067.843L3905.347,2065.893C3838.147,2050.693 3770.907,2007.773 3703.487,1964.379C3636.127,1921.038 3568.587,1877.222 3501.007,1860.582L3500.527,1862.524ZM3904.907,2067.843C3972.547,2083.147 4040.147,2070.549 4099.207,2049.119C4158.287,2027.689 4208.907,1997.395 4242.587,1977.233L4241.567,1975.517C4207.867,1995.683 4157.407,2025.881 4098.527,2047.239C4039.667,2068.597 3972.467,2081.081 3905.347,2065.893L3904.907,2067.843ZM4242.587,1977.233L4309.987,1936.905L4308.967,1935.189L4241.567,1975.517L4242.587,1977.233Z" transform="rotate(302.129 2287.691 1946.261)" fill="#FFFFFF" fill-opacity="0.1"/>
<path d="M4197.38,1901.768L4196.86,1900.91L4196.86,1900.91L4197.38,1901.768ZM220.397,1657.378L287.79,1748.106L289.395,1746.913L222.002,1656.186L220.397,1657.378ZM287.79,1748.106C321.484,1793.466 372.06,1861.556 431.076,1924.114C490.068,1986.648 557.598,2043.77 625.232,2067.068L625.882,2065.176C558.73,2042.044 491.474,1985.224 432.53,1922.742C373.606,1860.28 323.094,1792.28 289.395,1746.913L287.79,1748.106ZM625.232,2067.068C692.934,2090.39 760.588,2079.776 828.108,2052.646C895.606,2025.526 963.084,1981.85 1030.45,1938.93L1029.376,1937.242C961.958,1980.196 894.65,2023.754 827.362,2050.79C760.096,2077.818 692.966,2088.286 625.882,2065.176L625.232,2067.068ZM1030.45,1938.93C1165.256,1853.044 1299.924,1769.974 1434.55,1730.724L1433.99,1728.804C1299.046,1768.147 1164.142,1851.382 1029.376,1937.242L1030.45,1938.93ZM1434.55,1730.724C1569.11,1691.494 1703.56,1696.058 1838.042,1793.147L1839.212,1791.525C1704.124,1693.998 1569.002,1689.442 1433.99,1728.804L1434.55,1730.724ZM1838.042,1793.147C1871.684,1817.434 1905.342,1847.522 1939.032,1879.122C1972.704,1910.704 2006.432,1943.82 2040.138,1974.082C2073.85,2004.352 2107.602,2031.822 2141.38,2052.142C2175.156,2072.462 2209.014,2085.67 2242.94,2087.342L2243.04,2085.344C2209.56,2083.694 2176.028,2070.652 2142.41,2050.428C2108.794,2030.204 2075.154,2002.834 2041.474,1972.594C2007.786,1942.348 1974.122,1909.292 1940.4,1877.662C1906.698,1846.052 1872.964,1815.891 1839.212,1791.525L1838.042,1793.147ZM2242.94,2087.342C2276.86,2089.012 2310.72,2079.142 2344.52,2062.508C2378.3,2045.874 2412.06,2022.45 2445.76,1996.952C2479.54,1971.404 2513.12,1943.896 2546.84,1918.838C2580.52,1893.816 2614.16,1871.398 2647.76,1856.216L2646.92,1854.394C2613.14,1869.666 2579.36,1892.184 2545.66,1917.232C2512,1942.24 2478.18,1969.93 2444.56,1995.358C2410.88,2020.836 2377.24,2044.166 2343.64,2060.714C2310.02,2077.258 2276.5,2086.992 2243.04,2085.344L2242.94,2087.342ZM2647.76,1856.216C2714.92,1825.865 2782.1,1824.363 2849.44,1829.215C2916.72,1834.061 2984.28,1845.275 3051.78,1840.189L3051.62,1838.194C2984.32,1843.266 2917.1,1832.084 2849.6,1827.22C2782.14,1822.361 2714.54,1823.837 2646.92,1854.394L2647.76,1856.216ZM3051.78,1840.189C3119.26,1835.101 3186.82,1813.704 3254.1,1797.788C3321.46,1781.855 3388.66,1771.384 3455.82,1787.916L3456.3,1785.974C3388.66,1769.322 3321.06,1779.895 3253.64,1795.842C3186.16,1811.805 3118.92,1833.123 3051.62,1838.194L3051.78,1840.189ZM3455.82,1787.916C3523.02,1804.46 3590.26,1848.056 3657.7,1891.454C3725.04,1934.798 3792.6,1977.944 3860.2,1993.236L3860.64,1991.286C3793.44,1976.086 3726.2,1933.166 3658.78,1889.772C3591.42,1846.43 3523.88,1802.614 3456.3,1785.974L3455.82,1787.916ZM3860.2,1993.236C3927.84,2008.54 3995.44,1995.942 4054.5,1974.512C4113.58,1953.082 4164.2,1922.788 4197.88,1902.626L4196.86,1900.91C4163.16,1921.076 4112.7,1951.274 4053.82,1972.632C3994.96,1993.99 3927.76,2006.474 3860.64,1991.286L3860.2,1993.236ZM4197.88,1902.626L4265.28,1862.298L4264.26,1860.582L4196.86,1900.91L4197.88,1902.626Z" transform="rotate(302.129 2242.984 1871.653)" fill="#FFFFFF" fill-opacity="0.1"/>
<path d="M4153.548,1828.624L4153.028,1827.766L4153.028,1827.766L4153.548,1828.624ZM176.565,1584.234L243.958,1674.961L245.563,1673.769L178.17,1583.041L176.565,1584.234ZM243.958,1674.961C277.652,1720.322 328.228,1788.412 387.244,1850.97C446.236,1913.504 513.766,1970.626 581.4,1993.924L582.05,1992.032C514.898,1968.9 447.642,1912.08 388.698,1849.598C329.774,1787.136 279.262,1719.136 245.563,1673.769L243.958,1674.961ZM581.4,1993.924C649.102,2017.246 716.756,2006.632 784.276,1979.502C851.774,1952.382 919.252,1908.706 986.618,1865.786L985.544,1864.098C918.126,1907.052 850.818,1950.61 783.53,1977.646C716.264,2004.674 649.134,2015.142 582.05,1992.032L581.4,1993.924ZM986.618,1865.786C1121.424,1779.9 1256.092,1696.83 1390.718,1657.58L1390.158,1655.66C1255.214,1695.003 1120.31,1778.238 985.544,1864.098L986.618,1865.786ZM1390.718,1657.58C1525.278,1618.35 1659.728,1622.914 1794.21,1720.002L1795.38,1718.381C1660.292,1620.853 1525.17,1616.298 1390.158,1655.66L1390.718,1657.58ZM1794.21,1720.002C1827.852,1744.29 1861.51,1774.377 1895.2,1805.978C1928.872,1837.56 1962.6,1870.676 1996.306,1900.938C2030.018,1931.208 2063.77,1958.678 2097.548,1978.998C2131.324,1999.318 2165.182,2012.526 2199.108,2014.198L2199.208,2012.2C2165.73,2010.55 2132.196,1997.508 2098.578,1977.284C2064.962,1957.06 2031.322,1929.69 1997.642,1899.45C1963.954,1869.204 1930.29,1836.148 1896.568,1804.518C1862.866,1772.907 1829.132,1742.747 1795.38,1718.381L1794.21,1720.002ZM2199.108,2014.198C2233.028,2015.868 2266.888,2005.998 2300.688,1989.364C2334.468,1972.73 2368.228,1949.306 2401.928,1923.808C2435.708,1898.26 2469.288,1870.752 2503.008,1845.694C2536.688,1820.672 2570.328,1798.254 2603.928,1783.072L2603.088,1781.249C2569.308,1796.522 2535.528,1819.04 2501.828,1844.088C2468.168,1869.096 2434.348,1896.786 2400.728,1922.214C2367.048,1947.692 2333.408,1971.022 2299.808,1987.57C2266.188,2004.114 2232.668,2013.848 2199.208,2012.2L2199.108,2014.198ZM2603.928,1783.072C2671.088,1752.721 2738.268,1751.219 2805.608,1756.07C2872.888,1760.916 2940.448,1772.131 3007.948,1767.044L3007.788,1765.05C2940.488,1770.122 2873.268,1758.939 2805.768,1754.075C2738.308,1749.216 2670.708,1750.692 2603.088,1781.249L2603.928,1783.072ZM3007.948,1767.044C3075.448,1761.957 3142.988,1740.559 3210.268,1724.644C3277.628,1708.711 3344.828,1698.24 3411.988,1714.772L3412.468,1712.83C3344.828,1696.178 3277.228,1706.75 3209.808,1722.697C3142.328,1738.661 3075.088,1759.978 3007.788,1765.05L3007.948,1767.044ZM3411.988,1714.772C3479.188,1731.316 3546.428,1774.912 3613.868,1818.31C3681.208,1861.654 3748.768,1904.8 3816.368,1920.092L3816.808,1918.142C3749.608,1902.942 3682.368,1860.022 3614.948,1816.628C3547.588,1773.286 3480.048,1729.47 3412.468,1712.83L3411.988,1714.772ZM3816.368,1920.092C3884.008,1935.396 3951.608,1922.798 4010.668,1901.368C4069.748,1879.938 4120.368,1849.644 4154.048,1829.482L4153.028,1827.766C4119.328,1847.932 4068.868,1878.13 4009.988,1899.488C3951.128,1920.846 3883.928,1933.33 3816.808,1918.142L3816.368,1920.092ZM4154.048,1829.482L4221.448,1789.154L4220.428,1787.438L4153.028,1827.766L4154.048,1829.482Z" transform="rotate(302.129 2199.152 1798.509)" fill="#FFFFFF" fill-opacity="0.1"/>
<path d="M4108.841,1754.018L4108.321,1753.16L4108.321,1753.16L4108.841,1754.018ZM131.858,1509.628L199.251,1600.356L200.856,1599.163L133.463,1508.436L131.858,1509.628ZM199.251,1600.356C232.945,1645.716 283.521,1713.806 342.537,1776.364C401.529,1838.898 469.059,1896.02 536.693,1919.318L537.343,1917.426C470.191,1894.294 402.935,1837.474 343.991,1774.992C285.067,1712.53 234.555,1644.53 200.856,1599.163L199.251,1600.356ZM536.693,1919.318C604.395,1942.64 672.049,1932.026 739.569,1904.896C807.067,1877.776 874.545,1834.1 941.911,1791.18L940.837,1789.492C873.419,1832.446 806.111,1876.004 738.823,1903.04C671.557,1930.068 604.427,1940.536 537.343,1917.426L536.693,1919.318ZM941.911,1791.18C1076.717,1705.294 1211.385,1622.224 1346.011,1582.974L1345.451,1581.054C1210.507,1620.397 1075.603,1703.632 940.837,1789.492L941.911,1791.18ZM1346.011,1582.974C1480.571,1543.744 1615.021,1548.308 1749.503,1645.397L1750.673,1643.775C1615.585,1546.248 1480.463,1541.692 1345.451,1581.054L1346.011,1582.974ZM1749.503,1645.397C1783.145,1669.684 1816.803,1699.772 1850.493,1731.372C1884.165,1762.954 1917.893,1796.07 1951.599,1826.332C1985.311,1856.602 2019.063,1884.072 2052.841,1904.392C2086.617,1924.712 2120.475,1937.92 2154.401,1939.592L2154.501,1937.594C2121.021,1935.944 2087.489,1922.902 2053.871,1902.678C2020.255,1882.454 1986.615,1855.084 1952.935,1824.844C1919.247,1794.598 1885.583,1761.542 1851.861,1729.912C1818.159,1698.302 1784.425,1668.141 1750.673,1643.775L1749.503,1645.397ZM2154.401,1939.592C2188.321,1941.262 2222.181,1931.392 2255.981,1914.758C2289.761,1898.124 2323.521,1874.7 2357.221,1849.202C2391.001,1823.654 2424.581,1796.146 2458.301,1771.088C2491.981,1746.066 2525.621,1723.648 2559.221,1708.466L2558.381,1706.644C2524.601,1721.916 2490.821,1744.434 2457.121,1769.482C2423.461,1794.49 2389.641,1822.18 2356.021,1847.608C2322.341,1873.086 2288.701,1896.416 2255.101,1912.964C2221.481,1929.508 2187.961,1939.242 2154.501,1937.594L2154.401,1939.592ZM2559.221,1708.466C2626.381,1678.115 2693.561,1676.613 2760.901,1681.465C2828.181,1686.311 2895.741,1697.525 2963.241,1692.439L2963.081,1690.444C2895.781,1695.516 2828.561,1684.334 2761.061,1679.47C2693.601,1674.611 2626.001,1676.087 2558.381,1706.644L2559.221,1708.466ZM2963.241,1692.439C3030.741,1687.351 3098.281,1665.954 3165.561,1650.038C3232.921,1634.105 3300.121,1623.634 3367.281,1640.166L3367.761,1638.224C3300.121,1621.572 3232.521,1632.145 3165.101,1648.092C3097.621,1664.055 3030.381,1685.373 2963.081,1690.444L2963.241,1692.439ZM3367.281,1640.166C3434.481,1656.71 3501.721,1700.306 3569.161,1743.704C3636.501,1787.048 3704.061,1830.194 3771.661,1845.486L3772.101,1843.536C3704.901,1828.336 3637.661,1785.416 3570.241,1742.022C3502.881,1698.68 3435.341,1654.864 3367.761,1638.224L3367.281,1640.166ZM3771.661,1845.486C3839.301,1860.79 3906.901,1848.192 3965.961,1826.762C4025.041,1805.332 4075.661,1775.038 4109.341,1754.876L4108.321,1753.16C4074.621,1773.326 4024.161,1803.524 3965.281,1824.882C3906.421,1846.24 3839.221,1858.724 3772.101,1843.536L3771.661,1845.486ZM4109.341,1754.876L4176.741,1714.548L4175.721,1712.832L4108.321,1753.16L4109.341,1754.876Z" transform="rotate(302.129 2154.445 1723.903)" fill="#FFFFFF" fill-opacity="0.1"/>
<path d="M4065.009,1680.874L4064.489,1680.016L4064.489,1680.016L4065.009,1680.874ZM88.026,1436.484L155.419,1527.211L157.024,1526.019L89.631,1435.291L88.026,1436.484ZM155.419,1527.211C189.113,1572.572 239.689,1640.662 298.705,1703.22C357.697,1765.754 425.227,1822.876 492.861,1846.174L493.511,1844.282C426.359,1821.15 359.103,1764.33 300.159,1701.848C241.235,1639.386 190.723,1571.386 157.024,1526.019L155.419,1527.211ZM492.861,1846.174C560.563,1869.496 628.217,1858.882 695.737,1831.752C763.235,1804.632 830.713,1760.956 898.079,1718.036L897.005,1716.348C829.587,1759.302 762.279,1802.86 694.991,1829.896C627.725,1856.924 560.595,1867.392 493.511,1844.282L492.861,1846.174ZM898.079,1718.036C1032.885,1632.15 1167.553,1549.08 1302.179,1509.83L1301.619,1507.91C1166.675,1547.253 1031.771,1630.488 897.005,1716.348L898.079,1718.036ZM1302.179,1509.83C1436.739,1470.6 1571.189,1475.164 1705.671,1572.252L1706.841,1570.631C1571.753,1473.103 1436.631,1468.548 1301.619,1507.91L1302.179,1509.83ZM1705.671,1572.252C1739.313,1596.54 1772.971,1626.627 1806.661,1658.228C1840.333,1689.81 1874.061,1722.926 1907.767,1753.188C1941.479,1783.458 1975.231,1810.928 2009.009,1831.248C2042.785,1851.568 2076.643,1864.776 2110.569,1866.448L2110.669,1864.45C2077.189,1862.8 2043.657,1849.758 2010.039,1829.534C1976.423,1809.31 1942.783,1781.94 1909.103,1751.7C1875.415,1721.454 1841.751,1688.398 1808.029,1656.768C1774.327,1625.157 1740.593,1594.997 1706.841,1570.631L1705.671,1572.252ZM2110.569,1866.448C2144.489,1868.118 2178.349,1858.248 2212.149,1841.614C2245.929,1824.98 2279.689,1801.556 2313.389,1776.058C2347.169,1750.51 2380.749,1723.002 2414.469,1697.944C2448.149,1672.922 2481.789,1650.504 2515.389,1635.322L2514.549,1633.499C2480.769,1648.772 2446.989,1671.29 2413.289,1696.338C2379.629,1721.346 2345.809,1749.036 2312.189,1774.464C2278.509,1799.942 2244.869,1823.272 2211.269,1839.82C2177.649,1856.364 2144.129,1866.098 2110.669,1864.45L2110.569,1866.448ZM2515.389,1635.322C2582.549,1604.971 2649.729,1603.469 2717.069,1608.32C2784.349,1613.166 2851.909,1624.381 2919.409,1619.294L2919.249,1617.3C2851.949,1622.372 2784.729,1611.189 2717.229,1606.325C2649.769,1601.466 2582.169,1602.942 2514.549,1633.499L2515.389,1635.322ZM2919.409,1619.294C2986.889,1614.207 3054.449,1592.809 3121.729,1576.894C3189.089,1560.961 3256.289,1550.49 3323.449,1567.022L3323.929,1565.08C3256.289,1548.428 3188.689,1559 3121.269,1574.947C3053.789,1590.911 2986.549,1612.228 2919.249,1617.3L2919.409,1619.294ZM3323.449,1567.022C3390.649,1583.566 3457.889,1627.162 3525.329,1670.56C3592.669,1713.904 3660.229,1757.05 3727.829,1772.342L3728.269,1770.392C3661.069,1755.192 3593.829,1712.272 3526.409,1668.878C3459.049,1625.536 3391.509,1581.72 3323.929,1565.08L3323.449,1567.022ZM3727.829,1772.342C3795.469,1787.646 3863.069,1775.048 3922.129,1753.618C3981.209,1732.188 4031.829,1701.894 4065.509,1681.732L4064.489,1680.016C4030.789,1700.182 3980.329,1730.38 3921.449,1751.738C3862.589,1773.096 3795.389,1785.58 3728.269,1770.392L3727.829,1772.342ZM4065.509,1681.732L4132.909,1641.404L4131.889,1639.688L4064.489,1680.016L4065.509,1681.732Z" transform="rotate(302.129 2110.612 1650.759)" fill="#FFFFFF" fill-opacity="0.1"/>
<path d="M4020.302,1606.264L4019.782,1605.406L4019.782,1605.406L4020.302,1606.264ZM43.319,1361.874L110.712,1452.602L112.317,1451.409L44.924,1360.682L43.319,1361.874ZM110.712,1452.602C144.406,1497.962 194.982,1566.052 253.998,1628.61C312.99,1691.144 380.52,1748.266 448.154,1771.564L448.804,1769.672C381.652,1746.54 314.396,1689.72 255.452,1627.238C196.528,1564.776 146.016,1496.776 112.317,1451.409L110.712,1452.602ZM448.154,1771.564C515.856,1794.886 583.51,1784.272 651.03,1757.142C718.528,1730.022 786.006,1686.346 853.372,1643.426L852.298,1641.738C784.88,1684.692 717.572,1728.25 650.284,1755.286C583.018,1782.314 515.888,1792.782 448.804,1769.672L448.154,1771.564ZM853.372,1643.426C988.178,1557.54 1122.846,1474.47 1257.472,1435.221L1256.912,1433.301C1121.968,1472.643 987.064,1555.878 852.298,1641.738L853.372,1643.426ZM1257.472,1435.221C1392.032,1395.99 1526.482,1400.554 1660.964,1497.643L1662.134,1496.021C1527.046,1398.494 1391.924,1393.938 1256.912,1433.301L1257.472,1435.221ZM1660.964,1497.643C1694.606,1521.931 1728.264,1552.018 1761.954,1583.618C1795.626,1615.2 1829.354,1648.316 1863.06,1678.578C1896.772,1708.848 1930.524,1736.318 1964.302,1756.638C1998.078,1776.958 2031.936,1790.166 2065.862,1791.838L2065.962,1789.84C2032.482,1788.19 1998.95,1775.148 1965.332,1754.924C1931.716,1734.7 1898.076,1707.33 1864.396,1677.09C1830.708,1646.844 1797.044,1613.788 1763.322,1582.158C1729.62,1550.548 1695.886,1520.388 1662.134,1496.021L1660.964,1497.643ZM2065.862,1791.838C2099.782,1793.508 2133.642,1783.638 2167.442,1767.004C2201.222,1750.37 2234.982,1726.946 2268.682,1701.448C2302.462,1675.9 2336.042,1648.392 2369.762,1623.334C2403.442,1598.312 2437.082,1575.894 2470.682,1560.713L2469.842,1558.89C2436.062,1574.162 2402.282,1596.68 2368.582,1621.728C2334.922,1646.736 2301.102,1674.426 2267.482,1699.854C2233.802,1725.332 2200.162,1748.662 2166.562,1765.21C2132.942,1781.754 2099.422,1791.488 2065.962,1789.84L2065.862,1791.838ZM2470.682,1560.713C2537.842,1530.361 2605.022,1528.86 2672.362,1533.711C2739.642,1538.557 2807.202,1549.772 2874.702,1544.685L2874.542,1542.691C2807.242,1547.763 2740.022,1536.58 2672.522,1531.716C2605.062,1526.857 2537.462,1528.333 2469.842,1558.89L2470.682,1560.713ZM2874.702,1544.685C2942.182,1539.598 3009.742,1518.2 3077.022,1502.284C3144.382,1486.352 3211.582,1475.88 3278.742,1492.412L3279.222,1490.47C3211.582,1473.819 3143.982,1484.391 3076.562,1500.338C3009.082,1516.302 2941.842,1537.619 2874.542,1542.691L2874.702,1544.685ZM3278.742,1492.412C3345.942,1508.956 3413.182,1552.552 3480.622,1595.95C3547.962,1639.294 3615.522,1682.44 3683.122,1697.732L3683.562,1695.782C3616.362,1680.582 3549.122,1637.662 3481.702,1594.268C3414.342,1550.926 3346.802,1507.111 3279.222,1490.47L3278.742,1492.412ZM3683.122,1697.732C3750.762,1713.036 3818.362,1700.438 3877.422,1679.008C3936.502,1657.578 3987.122,1627.284 4020.802,1607.122L4019.782,1605.406C3986.082,1625.572 3935.622,1655.77 3876.742,1677.128C3817.882,1698.486 3750.682,1710.97 3683.562,1695.782L3683.122,1697.732ZM4020.802,1607.122L4088.202,1566.794L4087.182,1565.078L4019.782,1605.406L4020.802,1607.122Z" transform="rotate(302.129 2065.905 1576.149)" fill="#FFFFFF" fill-opacity="0.1"/>
<path d="M3976.469,1533.122L3975.949,1532.264L3975.949,1532.264L3976.469,1533.122ZM-0.513,1288.732L66.879,1379.459L68.485,1378.267L1.092,1287.539L-0.513,1288.732ZM66.879,1379.459C100.573,1424.82 151.15,1492.91 210.165,1555.468C269.157,1618.002 336.687,1675.124 404.321,1698.422L404.971,1696.53C337.819,1673.398 270.563,1616.578 211.619,1554.096C152.696,1491.634 102.184,1423.634 68.485,1378.267L66.879,1379.459ZM404.321,1698.422C472.023,1721.744 539.677,1711.13 607.197,1684C674.695,1656.88 742.173,1613.204 809.539,1570.284L808.465,1568.596C741.047,1611.55 673.739,1655.108 606.451,1682.144C539.185,1709.172 472.055,1719.64 404.971,1696.53L404.321,1698.422ZM809.539,1570.284C944.345,1484.398 1079.013,1401.328 1213.639,1362.078L1213.079,1360.158C1078.135,1399.501 943.231,1482.736 808.465,1568.596L809.539,1570.284ZM1213.639,1362.078C1348.199,1322.848 1482.649,1327.412 1617.131,1424.5L1618.301,1422.879C1483.213,1325.351 1348.091,1320.796 1213.079,1360.158L1213.639,1362.078ZM1617.131,1424.5C1650.773,1448.788 1684.431,1478.875 1718.121,1510.476C1751.793,1542.058 1785.521,1575.174 1819.227,1605.436C1852.939,1635.706 1886.691,1663.176 1920.469,1683.496C1954.245,1703.816 1988.103,1717.024 2022.029,1718.696L2022.129,1716.698C1988.649,1715.048 1955.117,1702.006 1921.499,1681.782C1887.883,1661.558 1854.243,1634.188 1820.563,1603.948C1786.875,1573.702 1753.211,1540.646 1719.489,1509.016C1685.787,1477.405 1652.053,1447.245 1618.301,1422.879L1617.131,1424.5ZM2022.029,1718.696C2055.949,1720.366 2089.809,1710.496 2123.609,1693.862C2157.389,1677.228 2191.149,1653.804 2224.849,1628.306C2258.629,1602.758 2292.209,1575.25 2325.929,1550.192C2359.609,1525.17 2393.249,1502.752 2426.849,1487.57L2426.009,1485.747C2392.229,1501.02 2358.449,1523.538 2324.749,1548.586C2291.089,1573.594 2257.269,1601.284 2223.649,1626.712C2189.969,1652.19 2156.329,1675.52 2122.729,1692.068C2089.109,1708.612 2055.589,1718.346 2022.129,1716.698L2022.029,1718.696ZM2426.849,1487.57C2494.009,1457.219 2561.189,1455.717 2628.529,1460.568C2695.809,1465.414 2763.369,1476.629 2830.869,1471.542L2830.709,1469.548C2763.409,1474.62 2696.189,1463.437 2628.689,1458.573C2561.229,1453.714 2493.629,1455.19 2426.009,1485.747L2426.849,1487.57ZM2830.869,1471.542C2898.349,1466.455 2965.909,1445.057 3033.189,1429.142C3100.549,1413.209 3167.749,1402.738 3234.909,1419.27L3235.389,1417.328C3167.749,1400.676 3100.149,1411.248 3032.729,1427.195C2965.249,1443.159 2898.009,1464.476 2830.709,1469.548L2830.869,1471.542ZM3234.909,1419.27C3302.109,1435.814 3369.349,1479.41 3436.789,1522.808C3504.129,1566.152 3571.689,1609.298 3639.289,1624.59L3639.729,1622.64C3572.529,1607.44 3505.289,1564.52 3437.869,1521.126C3370.509,1477.784 3302.969,1433.968 3235.389,1417.328L3234.909,1419.27ZM3639.289,1624.59C3706.929,1639.894 3774.529,1627.296 3833.589,1605.866C3892.669,1584.436 3943.289,1554.142 3976.969,1533.98L3975.949,1532.264C3942.249,1552.43 3891.789,1582.628 3832.909,1603.986C3774.049,1625.344 3706.849,1637.828 3639.729,1622.64L3639.289,1624.59ZM3976.969,1533.98L4044.369,1493.652L4043.349,1491.936L3975.949,1532.264L3976.969,1533.98Z" transform="rotate(302.129 2022.073 1503.007)" fill="#FFFFFF" fill-opacity="0.1"/>
</svg>
