<svg width="3406" height="1834" viewBox="0 0 3406 1834" fill="none" xmlns="http://www.w3.org/2000/svg" xmlns:xlink="http://www.w3.org/1999/xlink">
<rect  x="2573.793" y="266.961" width="47.108" height="47.108" rx="32" transform="rotate(52 2573.793 266.961)" fill="#A49BEC"/>
<rect  x="2782.648" y="1664" width="47.108" height="47.108" rx="32" transform="rotate(52 2782.648 1664)" fill="#A49BEC"/>
<rect  x="607.637" y="1798" width="26.549" height="26.549" rx="32" transform="rotate(52 607.637 1798)" fill="#A49BEC"/>
<circle cx="3017.443" cy="960.955" r="386.955" transform="rotate(360 3017.443 960.955)" fill="url(#pf_0_105_107)"/>
<circle cx="3018.159" cy="614.161" r="194.161" transform="rotate(360 3018.159 614.161)" fill="url(#pf_0_105_108)"/>
<circle cx="1474" cy="426" r="24" fill="#A49BEC"/>
<circle cx="299.446" cy="299.446" r="299.446" fill="url(#pf_0_105_110)"/>
<circle cx="486.772" cy="317.221" r="243.385" fill="url(#pf_0_105_111)"/>
<defs>
<linearGradient id="pf_0_105_107" x1="2911.299" y1="574" x2="3394.725" y2="1424.828" gradientUnits="userSpaceOnUse">
<stop stop-color="#A49BEC"/>
<stop offset="1" stop-color="#0A0728"/>
</linearGradient>
<linearGradient id="pf_0_105_108" x1="2797.538" y1="401.388" x2="3212.32" y2="749.524" gradientUnits="userSpaceOnUse">
<stop stop-color="#FFFFFF" stop-opacity="0.32"/>
<stop offset="0.627" stop-color="#FFFFFF" stop-opacity="0.32"/>
<stop offset="1" stop-color="#FFFFFF" stop-opacity="0.32"/>
</linearGradient>
<linearGradient id="pf_0_105_110" x1="217.306" y1="0" x2="591.406" y2="658.415" gradientUnits="userSpaceOnUse">
<stop stop-color="#A49BEC"/>
<stop offset="1" stop-color="#0A0728"/>
</linearGradient>
<linearGradient id="pf_0_105_111" x1="210.219" y1="50.505" x2="730.157" y2="486.902" gradientUnits="userSpaceOnUse">
<stop stop-color="#FFFFFF" stop-opacity="0.32"/>
<stop offset="0.627" stop-color="#FFFFFF" stop-opacity="0.32"/>
<stop offset="1" stop-color="#FFFFFF" stop-opacity="0.32"/>
</linearGradient>
</defs>
</svg>
