<svg width="40" height="40" viewBox="0 0 40 40" fill="none" xmlns="http://www.w3.org/2000/svg" xmlns:xlink="http://www.w3.org/1999/xlink">
<path d="M32.867,35.211C29.398,38.141 24.899,40 20,40C12.711,40 6.312,35.984 2.844,30.125L4.142,24.139L9.898,23.07C11.234,27.383 15.266,30.547 20,30.547C22.297,30.547 24.43,29.82 26.188,28.531L31.719,29.375L32.867,35.211Z" fill="#59C36A"/>
<path d="M32.867,35.211L31.719,29.375L26.188,28.531C24.43,29.82 22.297,30.547 20,30.547L20,40C24.899,40 29.398,38.141 32.867,35.211Z" fill="#00A66C"/>
<path d="M9.453,20C9.453,21.078 9.617,22.109 9.898,23.07L2.844,30.125C1.086,27.172 0,23.703 0,20C0,16.297 1.086,12.828 2.844,9.875L8.506,10.849L9.898,16.93C9.617,17.891 9.453,18.922 9.453,20Z" fill="#FFDA2D"/>
<path d="M40,20C40,26.094 37.18,31.555 32.867,35.211L26.188,28.531C27.547,27.547 28.695,26.234 29.445,24.688L20,24.688C19.344,24.688 18.828,24.172 18.828,23.516L18.828,16.484C18.828,15.828 19.344,15.313 20,15.313L38.5,15.313C39.063,15.313 39.555,15.711 39.649,16.273C39.883,17.492 40,18.758 40,20L40,20Z" fill="#4086F4"/>
<path d="M29.445,24.688C28.695,26.234 27.547,27.547 26.188,28.531L32.867,35.211C37.18,31.555 40,26.094 40,20C40,18.758 39.883,17.492 39.648,16.273C39.555,15.711 39.062,15.313 38.5,15.313L20,15.313L20,24.688L29.445,24.688Z" fill="#376AED"/>
<path d="M33.195,5.586C33.219,5.914 33.078,6.219 32.867,6.453L27.852,11.445C27.453,11.867 26.797,11.914 26.328,11.562C24.477,10.18 22.297,9.453 20,9.453C15.266,9.453 11.234,12.617 9.898,16.93L2.844,9.875C6.312,4.016 12.711,0 20,0C24.664,0 29.211,1.719 32.773,4.719C33.031,4.93 33.172,5.258 33.195,5.586L33.195,5.586Z" fill="#FF7F23"/>
<path d="M26.328,11.562C26.797,11.914 27.453,11.867 27.851,11.445L32.867,6.453C33.078,6.219 33.219,5.914 33.195,5.586C33.172,5.258 33.031,4.93 32.773,4.719C29.211,1.719 24.664,0 20,0L20,9.453C22.297,9.453 24.476,10.18 26.328,11.562Z" fill="#F03800"/>
</svg>
