<svg width="3076" height="2724" viewBox="0 0 3076 2724" fill="none" xmlns="http://www.w3.org/2000/svg" xmlns:xlink="http://www.w3.org/1999/xlink">
<mask id="mask_0_105_67" style="mask-type:alpha" maskUnits="userSpaceOnUse" x="0.878906" y="162" width="1536.700073" height="900">
<rect  x="0.879" y="162" width="3073.4" height="1800" fill="#26292D"/>
</mask>
<g mask="url(#mask_0_105_67)">
<path d="M3.056,0.096L3.056,2723.896L5.056,2723.896L5.056,0.096L3.056,0.096ZM386.834,0.096L386.834,2723.896L388.834,2723.896L388.834,0.096L386.834,0.096ZM770.612,0.096L770.612,2723.896L772.612,2723.896L772.612,0.096L770.612,0.096ZM1154.39,0.096L1154.39,2723.896L1156.39,2723.896L1156.39,0.096L1154.39,0.096ZM1538.166,0.096L1538.166,2723.896L1540.166,2723.896L1540.166,0.096L1538.166,0.096ZM1921.944,0.096L1921.944,2723.896L1923.944,2723.896L1923.944,0.096L1921.944,0.096ZM2305.732,0.096L2305.712,2723.896L2307.712,2723.896L2307.732,0.096L2305.732,0.096ZM2689.492,0.096L2689.492,2723.896L2691.492,2723.896L2691.492,0.096L2689.492,0.096ZM3073.272,0.096L3073.272,2723.896L3075.272,2723.896L3075.272,0.096L3073.272,0.096ZM3.012,2648.756L3073.232,2648.756L3073.232,2646.756L3.012,2646.756L3.012,2648.756ZM3.012,2220.216L3073.232,2220.216L3073.232,2218.216L3.012,2218.216L3.012,2220.216ZM3.012,1791.698L3073.232,1791.698L3073.232,1789.698L3.012,1789.698L3.012,1791.698ZM3.012,1363.174L3073.232,1363.174L3073.232,1361.174L3.012,1361.174L3.012,1363.174ZM3.012,934.65L3073.232,934.65L3073.232,932.65L3.012,932.65L3.012,934.65ZM3.012,506.124L3073.232,506.124L3073.232,504.124L3.012,504.124L3.012,506.124ZM3.012,77.6L3073.232,77.6L3073.232,75.6L3.012,75.6L3.012,77.6Z" fill="url(#ps_0_105_68)"/>
</g>
<defs>
<radialGradient id="ps_0_105_68" cx="0" cy="0" r="1" gradientUnits="userSpaceOnUse" gradientTransform="matrix(0 680.952393 -767.816406 0 769.322 681)">
<stop stop-color="#FFFFFF" stop-opacity="0.24"/>
<stop offset="1" stop-color="#FFFFFF" stop-opacity="0.24"/>
</radialGradient>
</defs>
</svg>
