<svg width="44" height="52" viewBox="0 0 44 52" fill="none" xmlns="http://www.w3.org/2000/svg" xmlns:xlink="http://www.w3.org/1999/xlink">
<path d="M10.908,51.004C9.84,50.323 8.893,49.48 8.104,48.51C7.237,47.508 6.433,46.456 5.697,45.362C3.97,42.935 2.616,40.282 1.676,37.486C0.547,34.237 0,31.124 0,28.078C0,24.677 0.767,21.708 2.267,19.213C3.379,17.263 5.014,15.634 7.002,14.493C8.929,13.345 11.143,12.716 13.412,12.674C14.206,12.674 15.061,12.784 15.968,12.996C16.62,13.173 17.414,13.452 18.384,13.8C19.618,14.256 20.297,14.535 20.527,14.604C21.25,14.857 21.858,14.967 22.335,14.967C22.697,14.967 23.209,14.857 23.789,14.688C24.116,14.578 24.732,14.383 25.614,14.02C26.488,13.715 27.175,13.454 27.722,13.259C28.56,13.022 29.371,12.802 30.094,12.692C30.951,12.562 31.821,12.528 32.686,12.589C34.185,12.683 35.662,12.988 37.069,13.494C39.37,14.383 41.23,15.77 42.615,17.742C42.03,18.088 41.48,18.487 40.975,18.934C39.874,19.87 38.936,20.97 38.197,22.19C37.23,23.859 36.729,25.738 36.742,27.646C36.778,29.99 37.404,32.054 38.638,33.839C39.546,35.162 40.725,36.294 42.104,37.164C42.81,37.621 43.418,37.934 44,38.145C43.727,38.957 43.436,39.743 43.093,40.523C42.313,42.271 41.368,43.948 40.27,45.531C39.292,46.893 38.525,47.909 37.943,48.584C37.035,49.616 36.162,50.403 35.28,50.952C34.31,51.57 33.163,51.899 31.999,51.899C31.21,51.928 30.421,51.837 29.662,51.628C29.011,51.417 28.366,51.188 27.731,50.926C27.071,50.636 26.39,50.39 25.694,50.191C23.973,49.767 22.17,49.764 20.448,50.182C19.742,50.377 19.063,50.605 18.392,50.884C17.449,51.264 16.823,51.519 16.461,51.628C15.738,51.831 14.988,51.958 14.229,52C13.056,52 11.962,51.678 10.879,51.027L10.908,51.004ZM26.381,11.024C24.848,11.759 23.383,12.073 21.929,11.971C21.7,10.566 21.929,9.128 22.537,7.554C23.054,6.221 23.819,4.988 24.793,3.916C25.823,2.787 27.072,1.862 28.47,1.192C29.96,0.456 31.381,0.058 32.738,0C32.915,1.472 32.738,2.919 32.175,4.483C31.653,5.866 30.89,7.153 29.918,8.29C28.926,9.42 27.709,10.349 26.337,11.022L26.381,11.024Z" fill="#D2D2D2"/>
</svg>
