<svg width="60" height="50" viewBox="0 0 60 50" fill="none" xmlns="http://www.w3.org/2000/svg" xmlns:xlink="http://www.w3.org/1999/xlink">
<path d="M60,5.919C57.753,6.94 55.37,7.609 52.93,7.906C55.472,6.344 57.423,3.871 58.342,0.923C55.926,2.393 53.282,3.429 50.526,3.986C48.28,1.533 45.081,0 41.54,0C34.742,0 29.23,5.652 29.23,12.622C29.23,13.612 29.339,14.575 29.549,15.499C19.319,14.972 10.248,9.947 4.177,2.311C3.117,4.175 2.51,6.343 2.51,8.656C2.51,13.036 4.684,16.899 7.987,19.163C6.032,19.1 4.12,18.558 2.411,17.584C2.41,17.636 2.41,17.689 2.41,17.742C2.41,23.858 6.653,28.96 12.284,30.12C10.472,30.625 8.57,30.699 6.725,30.336C8.292,35.351 12.838,39 18.224,39.102C14.011,42.487 8.704,44.505 2.936,44.505C1.943,44.505 0.963,44.445 0,44.329C5.448,47.91 11.918,50 18.87,50C41.512,50 53.893,30.766 53.893,14.086C53.893,13.539 53.881,12.994 53.858,12.453C56.267,10.667 58.347,8.454 60,5.919Z" fill="#55ACEE"/>
</svg>
