<svg width="40" height="40" viewBox="0 0 40 40" fill="none" xmlns="http://www.w3.org/2000/svg" xmlns:xlink="http://www.w3.org/1999/xlink">
<path d="M40,20.122C40,9.006 31.048,0 20,0C8.952,0 0,9.006 0,20.122C0,30.165 7.314,38.489 16.875,40L16.875,25.938L11.794,25.938L11.794,20.122L16.875,20.122L16.875,15.688C16.875,10.646 19.859,7.86 24.429,7.86C26.618,7.86 28.906,8.253 28.906,8.253L28.906,13.202L26.384,13.202C23.9,13.202 23.125,14.754 23.125,16.345L23.125,20.122L28.672,20.122L27.785,25.938L23.125,25.938L23.125,40C32.686,38.489 40,30.165 40,20.122Z" fill="#376AED"/>
</svg>
