<svg width="20" height="16" viewBox="0 0 20 16" fill="none" xmlns="http://www.w3.org/2000/svg" xmlns:xlink="http://www.w3.org/1999/xlink">
<path d="M2.928,5.821C2.508,5.308 1.752,5.234 1.239,5.654C0.727,6.074 0.652,6.83 1.072,7.343L2.928,5.821ZM8.082,14L7.154,14.761C7.382,15.038 7.721,15.199 8.08,15.2C8.439,15.201 8.779,15.041 9.007,14.764L8.082,14ZM18.925,2.764C19.347,2.254 19.275,1.497 18.764,1.075C18.254,0.653 17.497,0.725 17.075,1.236L18.925,2.764ZM1.072,7.343L7.154,14.761L9.01,13.239L2.928,5.821L1.072,7.343ZM9.007,14.764L18.925,2.764L17.075,1.236L7.157,13.236L9.007,14.764Z" fill="#FFFFFF"/>
</svg>
